<?xml version="1.0" encoding="utf-8" standalone="no"?>
<!DOCTYPE svg PUBLIC "-//W3C//DTD SVG 1.1//EN"
  "http://www.w3.org/Graphics/SVG/1.1/DTD/svg11.dtd">
<!-- Created with matplotlib (http://matplotlib.org/) -->
<svg height="249.23625pt" version="1.1" viewBox="0 0 387.96239 249.23625" width="387.96239pt" xmlns="http://www.w3.org/2000/svg" xmlns:xlink="http://www.w3.org/1999/xlink">
 <defs>
  <style type="text/css">
*{stroke-linecap:butt;stroke-linejoin:round;}
  </style>
 </defs>
 <g id="figure_1">
  <g id="patch_1">
   <path d="M 0 249.23625 
L 387.96239 249.23625 
L 387.96239 0 
L 0 0 
z
" style="fill:#ffffff;"/>
  </g>
  <g id="axes_1">
   <g id="patch_2">
    <path d="M 38.8125 232.558125 
L 373.6125 232.558125 
L 373.6125 15.118125 
L 38.8125 15.118125 
z
" style="fill:#ffffff;"/>
   </g>
   <g id="matplotlib.axis_1">
    <g id="xtick_1">
     <g id="line2d_1">
      <defs>
       <path d="M 0 0 
L 0 3.5 
" id="mf50b3dd642" style="stroke:#000000;stroke-width:0.8;"/>
      </defs>
      <g>
       <use style="stroke:#000000;stroke-width:0.8;" x="51.974951" xlink:href="#mf50b3dd642" y="232.558125"/>
      </g>
     </g>
     <g id="text_1">
      <!-- 2017-06 -->
      <defs>
       <path d="M 19.1875 8.296875 
L 53.609375 8.296875 
L 53.609375 0 
L 7.328125 0 
L 7.328125 8.296875 
Q 12.9375 14.109375 22.625 23.890625 
Q 32.328125 33.6875 34.8125 36.53125 
Q 39.546875 41.84375 41.421875 45.53125 
Q 43.3125 49.21875 43.3125 52.78125 
Q 43.3125 58.59375 39.234375 62.25 
Q 35.15625 65.921875 28.609375 65.921875 
Q 23.96875 65.921875 18.8125 64.3125 
Q 13.671875 62.703125 7.8125 59.421875 
L 7.8125 69.390625 
Q 13.765625 71.78125 18.9375 73 
Q 24.125 74.21875 28.421875 74.21875 
Q 39.75 74.21875 46.484375 68.546875 
Q 53.21875 62.890625 53.21875 53.421875 
Q 53.21875 48.921875 51.53125 44.890625 
Q 49.859375 40.875 45.40625 35.40625 
Q 44.1875 33.984375 37.640625 27.21875 
Q 31.109375 20.453125 19.1875 8.296875 
z
" id="DejaVuSans-32"/>
       <path d="M 31.78125 66.40625 
Q 24.171875 66.40625 20.328125 58.90625 
Q 16.5 51.421875 16.5 36.375 
Q 16.5 21.390625 20.328125 13.890625 
Q 24.171875 6.390625 31.78125 6.390625 
Q 39.453125 6.390625 43.28125 13.890625 
Q 47.125 21.390625 47.125 36.375 
Q 47.125 51.421875 43.28125 58.90625 
Q 39.453125 66.40625 31.78125 66.40625 
z
M 31.78125 74.21875 
Q 44.046875 74.21875 50.515625 64.515625 
Q 56.984375 54.828125 56.984375 36.375 
Q 56.984375 17.96875 50.515625 8.265625 
Q 44.046875 -1.421875 31.78125 -1.421875 
Q 19.53125 -1.421875 13.0625 8.265625 
Q 6.59375 17.96875 6.59375 36.375 
Q 6.59375 54.828125 13.0625 64.515625 
Q 19.53125 74.21875 31.78125 74.21875 
z
" id="DejaVuSans-30"/>
       <path d="M 12.40625 8.296875 
L 28.515625 8.296875 
L 28.515625 63.921875 
L 10.984375 60.40625 
L 10.984375 69.390625 
L 28.421875 72.90625 
L 38.28125 72.90625 
L 38.28125 8.296875 
L 54.390625 8.296875 
L 54.390625 0 
L 12.40625 0 
z
" id="DejaVuSans-31"/>
       <path d="M 8.203125 72.90625 
L 55.078125 72.90625 
L 55.078125 68.703125 
L 28.609375 0 
L 18.3125 0 
L 43.21875 64.59375 
L 8.203125 64.59375 
z
" id="DejaVuSans-37"/>
       <path d="M 4.890625 31.390625 
L 31.203125 31.390625 
L 31.203125 23.390625 
L 4.890625 23.390625 
z
" id="DejaVuSans-2d"/>
       <path d="M 33.015625 40.375 
Q 26.375 40.375 22.484375 35.828125 
Q 18.609375 31.296875 18.609375 23.390625 
Q 18.609375 15.53125 22.484375 10.953125 
Q 26.375 6.390625 33.015625 6.390625 
Q 39.65625 6.390625 43.53125 10.953125 
Q 47.40625 15.53125 47.40625 23.390625 
Q 47.40625 31.296875 43.53125 35.828125 
Q 39.65625 40.375 33.015625 40.375 
z
M 52.59375 71.296875 
L 52.59375 62.3125 
Q 48.875 64.0625 45.09375 64.984375 
Q 41.3125 65.921875 37.59375 65.921875 
Q 27.828125 65.921875 22.671875 59.328125 
Q 17.53125 52.734375 16.796875 39.40625 
Q 19.671875 43.65625 24.015625 45.921875 
Q 28.375 48.1875 33.59375 48.1875 
Q 44.578125 48.1875 50.953125 41.515625 
Q 57.328125 34.859375 57.328125 23.390625 
Q 57.328125 12.15625 50.6875 5.359375 
Q 44.046875 -1.421875 33.015625 -1.421875 
Q 20.359375 -1.421875 13.671875 8.265625 
Q 6.984375 17.96875 6.984375 36.375 
Q 6.984375 53.65625 15.1875 63.9375 
Q 23.390625 74.21875 37.203125 74.21875 
Q 40.921875 74.21875 44.703125 73.484375 
Q 48.484375 72.75 52.59375 71.296875 
z
" id="DejaVuSans-36"/>
      </defs>
      <g transform="translate(31.083544 247.156563)scale(0.1 -0.1)">
       <use xlink:href="#DejaVuSans-32"/>
       <use x="63.623047" xlink:href="#DejaVuSans-30"/>
       <use x="127.246094" xlink:href="#DejaVuSans-31"/>
       <use x="190.869141" xlink:href="#DejaVuSans-37"/>
       <use x="254.492188" xlink:href="#DejaVuSans-2d"/>
       <use x="290.576172" xlink:href="#DejaVuSans-30"/>
       <use x="354.199219" xlink:href="#DejaVuSans-36"/>
      </g>
     </g>
    </g>
    <g id="xtick_2">
     <g id="line2d_2">
      <g>
       <use style="stroke:#000000;stroke-width:0.8;" x="91.442832" xlink:href="#mf50b3dd642" y="232.558125"/>
      </g>
     </g>
     <g id="text_2">
      <!-- 2017-08 -->
      <defs>
       <path d="M 31.78125 34.625 
Q 24.75 34.625 20.71875 30.859375 
Q 16.703125 27.09375 16.703125 20.515625 
Q 16.703125 13.921875 20.71875 10.15625 
Q 24.75 6.390625 31.78125 6.390625 
Q 38.8125 6.390625 42.859375 10.171875 
Q 46.921875 13.96875 46.921875 20.515625 
Q 46.921875 27.09375 42.890625 30.859375 
Q 38.875 34.625 31.78125 34.625 
z
M 21.921875 38.8125 
Q 15.578125 40.375 12.03125 44.71875 
Q 8.5 49.078125 8.5 55.328125 
Q 8.5 64.0625 14.71875 69.140625 
Q 20.953125 74.21875 31.78125 74.21875 
Q 42.671875 74.21875 48.875 69.140625 
Q 55.078125 64.0625 55.078125 55.328125 
Q 55.078125 49.078125 51.53125 44.71875 
Q 48 40.375 41.703125 38.8125 
Q 48.828125 37.15625 52.796875 32.3125 
Q 56.78125 27.484375 56.78125 20.515625 
Q 56.78125 9.90625 50.3125 4.234375 
Q 43.84375 -1.421875 31.78125 -1.421875 
Q 19.734375 -1.421875 13.25 4.234375 
Q 6.78125 9.90625 6.78125 20.515625 
Q 6.78125 27.484375 10.78125 32.3125 
Q 14.796875 37.15625 21.921875 38.8125 
z
M 18.3125 54.390625 
Q 18.3125 48.734375 21.84375 45.5625 
Q 25.390625 42.390625 31.78125 42.390625 
Q 38.140625 42.390625 41.71875 45.5625 
Q 45.3125 48.734375 45.3125 54.390625 
Q 45.3125 60.0625 41.71875 63.234375 
Q 38.140625 66.40625 31.78125 66.40625 
Q 25.390625 66.40625 21.84375 63.234375 
Q 18.3125 60.0625 18.3125 54.390625 
z
" id="DejaVuSans-38"/>
      </defs>
      <g transform="translate(70.551425 247.156563)scale(0.1 -0.1)">
       <use xlink:href="#DejaVuSans-32"/>
       <use x="63.623047" xlink:href="#DejaVuSans-30"/>
       <use x="127.246094" xlink:href="#DejaVuSans-31"/>
       <use x="190.869141" xlink:href="#DejaVuSans-37"/>
       <use x="254.492188" xlink:href="#DejaVuSans-2d"/>
       <use x="290.576172" xlink:href="#DejaVuSans-30"/>
       <use x="354.199219" xlink:href="#DejaVuSans-38"/>
      </g>
     </g>
    </g>
    <g id="xtick_3">
     <g id="line2d_3">
      <g>
       <use style="stroke:#000000;stroke-width:0.8;" x="130.910713" xlink:href="#mf50b3dd642" y="232.558125"/>
      </g>
     </g>
     <g id="text_3">
      <!-- 2017-10 -->
      <g transform="translate(110.019306 247.156563)scale(0.1 -0.1)">
       <use xlink:href="#DejaVuSans-32"/>
       <use x="63.623047" xlink:href="#DejaVuSans-30"/>
       <use x="127.246094" xlink:href="#DejaVuSans-31"/>
       <use x="190.869141" xlink:href="#DejaVuSans-37"/>
       <use x="254.492188" xlink:href="#DejaVuSans-2d"/>
       <use x="290.576172" xlink:href="#DejaVuSans-31"/>
       <use x="354.199219" xlink:href="#DejaVuSans-30"/>
      </g>
     </g>
    </g>
    <g id="xtick_4">
     <g id="line2d_4">
      <g>
       <use style="stroke:#000000;stroke-width:0.8;" x="170.378594" xlink:href="#mf50b3dd642" y="232.558125"/>
      </g>
     </g>
     <g id="text_4">
      <!-- 2017-12 -->
      <g transform="translate(149.487187 247.156563)scale(0.1 -0.1)">
       <use xlink:href="#DejaVuSans-32"/>
       <use x="63.623047" xlink:href="#DejaVuSans-30"/>
       <use x="127.246094" xlink:href="#DejaVuSans-31"/>
       <use x="190.869141" xlink:href="#DejaVuSans-37"/>
       <use x="254.492188" xlink:href="#DejaVuSans-2d"/>
       <use x="290.576172" xlink:href="#DejaVuSans-31"/>
       <use x="354.199219" xlink:href="#DejaVuSans-32"/>
      </g>
     </g>
    </g>
    <g id="xtick_5">
     <g id="line2d_5">
      <g>
       <use style="stroke:#000000;stroke-width:0.8;" x="210.493489" xlink:href="#mf50b3dd642" y="232.558125"/>
      </g>
     </g>
     <g id="text_5">
      <!-- 2018-02 -->
      <g transform="translate(189.602083 247.156563)scale(0.1 -0.1)">
       <use xlink:href="#DejaVuSans-32"/>
       <use x="63.623047" xlink:href="#DejaVuSans-30"/>
       <use x="127.246094" xlink:href="#DejaVuSans-31"/>
       <use x="190.869141" xlink:href="#DejaVuSans-38"/>
       <use x="254.492188" xlink:href="#DejaVuSans-2d"/>
       <use x="290.576172" xlink:href="#DejaVuSans-30"/>
       <use x="354.199219" xlink:href="#DejaVuSans-32"/>
      </g>
     </g>
    </g>
    <g id="xtick_6">
     <g id="line2d_6">
      <g>
       <use style="stroke:#000000;stroke-width:0.8;" x="248.667341" xlink:href="#mf50b3dd642" y="232.558125"/>
      </g>
     </g>
     <g id="text_6">
      <!-- 2018-04 -->
      <defs>
       <path d="M 37.796875 64.3125 
L 12.890625 25.390625 
L 37.796875 25.390625 
z
M 35.203125 72.90625 
L 47.609375 72.90625 
L 47.609375 25.390625 
L 58.015625 25.390625 
L 58.015625 17.1875 
L 47.609375 17.1875 
L 47.609375 0 
L 37.796875 0 
L 37.796875 17.1875 
L 4.890625 17.1875 
L 4.890625 26.703125 
z
" id="DejaVuSans-34"/>
      </defs>
      <g transform="translate(227.775935 247.156563)scale(0.1 -0.1)">
       <use xlink:href="#DejaVuSans-32"/>
       <use x="63.623047" xlink:href="#DejaVuSans-30"/>
       <use x="127.246094" xlink:href="#DejaVuSans-31"/>
       <use x="190.869141" xlink:href="#DejaVuSans-38"/>
       <use x="254.492188" xlink:href="#DejaVuSans-2d"/>
       <use x="290.576172" xlink:href="#DejaVuSans-30"/>
       <use x="354.199219" xlink:href="#DejaVuSans-34"/>
      </g>
     </g>
    </g>
    <g id="xtick_7">
     <g id="line2d_7">
      <g>
       <use style="stroke:#000000;stroke-width:0.8;" x="288.135222" xlink:href="#mf50b3dd642" y="232.558125"/>
      </g>
     </g>
     <g id="text_7">
      <!-- 2018-06 -->
      <g transform="translate(267.243816 247.156563)scale(0.1 -0.1)">
       <use xlink:href="#DejaVuSans-32"/>
       <use x="63.623047" xlink:href="#DejaVuSans-30"/>
       <use x="127.246094" xlink:href="#DejaVuSans-31"/>
       <use x="190.869141" xlink:href="#DejaVuSans-38"/>
       <use x="254.492188" xlink:href="#DejaVuSans-2d"/>
       <use x="290.576172" xlink:href="#DejaVuSans-30"/>
       <use x="354.199219" xlink:href="#DejaVuSans-36"/>
      </g>
     </g>
    </g>
    <g id="xtick_8">
     <g id="line2d_8">
      <g>
       <use style="stroke:#000000;stroke-width:0.8;" x="327.603103" xlink:href="#mf50b3dd642" y="232.558125"/>
      </g>
     </g>
     <g id="text_8">
      <!-- 2018-08 -->
      <g transform="translate(306.711697 247.156563)scale(0.1 -0.1)">
       <use xlink:href="#DejaVuSans-32"/>
       <use x="63.623047" xlink:href="#DejaVuSans-30"/>
       <use x="127.246094" xlink:href="#DejaVuSans-31"/>
       <use x="190.869141" xlink:href="#DejaVuSans-38"/>
       <use x="254.492188" xlink:href="#DejaVuSans-2d"/>
       <use x="290.576172" xlink:href="#DejaVuSans-30"/>
       <use x="354.199219" xlink:href="#DejaVuSans-38"/>
      </g>
     </g>
    </g>
    <g id="xtick_9">
     <g id="line2d_9">
      <g>
       <use style="stroke:#000000;stroke-width:0.8;" x="367.070984" xlink:href="#mf50b3dd642" y="232.558125"/>
      </g>
     </g>
     <g id="text_9">
      <!-- 2018-10 -->
      <g transform="translate(346.179578 247.156563)scale(0.1 -0.1)">
       <use xlink:href="#DejaVuSans-32"/>
       <use x="63.623047" xlink:href="#DejaVuSans-30"/>
       <use x="127.246094" xlink:href="#DejaVuSans-31"/>
       <use x="190.869141" xlink:href="#DejaVuSans-38"/>
       <use x="254.492188" xlink:href="#DejaVuSans-2d"/>
       <use x="290.576172" xlink:href="#DejaVuSans-31"/>
       <use x="354.199219" xlink:href="#DejaVuSans-30"/>
      </g>
     </g>
    </g>
   </g>
   <g id="matplotlib.axis_2">
    <g id="ytick_1">
     <g id="line2d_10">
      <defs>
       <path d="M 0 0 
L -3.5 0 
" id="mff5fc41dd0" style="stroke:#000000;stroke-width:0.8;"/>
      </defs>
      <g>
       <use style="stroke:#000000;stroke-width:0.8;" x="38.8125" xlink:href="#mff5fc41dd0" y="222.676622"/>
      </g>
     </g>
     <g id="text_10">
      <!-- 0 -->
      <g transform="translate(25.45 226.475841)scale(0.1 -0.1)">
       <use xlink:href="#DejaVuSans-30"/>
      </g>
     </g>
    </g>
    <g id="ytick_2">
     <g id="line2d_11">
      <g>
       <use style="stroke:#000000;stroke-width:0.8;" x="38.8125" xlink:href="#mff5fc41dd0" y="180.008072"/>
      </g>
     </g>
     <g id="text_11">
      <!-- 20000 -->
      <g transform="translate(0 183.80729)scale(0.1 -0.1)">
       <use xlink:href="#DejaVuSans-32"/>
       <use x="63.623047" xlink:href="#DejaVuSans-30"/>
       <use x="127.246094" xlink:href="#DejaVuSans-30"/>
       <use x="190.869141" xlink:href="#DejaVuSans-30"/>
       <use x="254.492188" xlink:href="#DejaVuSans-30"/>
      </g>
     </g>
    </g>
    <g id="ytick_3">
     <g id="line2d_12">
      <g>
       <use style="stroke:#000000;stroke-width:0.8;" x="38.8125" xlink:href="#mff5fc41dd0" y="137.339521"/>
      </g>
     </g>
     <g id="text_12">
      <!-- 40000 -->
      <g transform="translate(0 141.13874)scale(0.1 -0.1)">
       <use xlink:href="#DejaVuSans-34"/>
       <use x="63.623047" xlink:href="#DejaVuSans-30"/>
       <use x="127.246094" xlink:href="#DejaVuSans-30"/>
       <use x="190.869141" xlink:href="#DejaVuSans-30"/>
       <use x="254.492188" xlink:href="#DejaVuSans-30"/>
      </g>
     </g>
    </g>
    <g id="ytick_4">
     <g id="line2d_13">
      <g>
       <use style="stroke:#000000;stroke-width:0.8;" x="38.8125" xlink:href="#mff5fc41dd0" y="94.670971"/>
      </g>
     </g>
     <g id="text_13">
      <!-- 60000 -->
      <g transform="translate(0 98.470189)scale(0.1 -0.1)">
       <use xlink:href="#DejaVuSans-36"/>
       <use x="63.623047" xlink:href="#DejaVuSans-30"/>
       <use x="127.246094" xlink:href="#DejaVuSans-30"/>
       <use x="190.869141" xlink:href="#DejaVuSans-30"/>
       <use x="254.492188" xlink:href="#DejaVuSans-30"/>
      </g>
     </g>
    </g>
    <g id="ytick_5">
     <g id="line2d_14">
      <g>
       <use style="stroke:#000000;stroke-width:0.8;" x="38.8125" xlink:href="#mff5fc41dd0" y="52.00242"/>
      </g>
     </g>
     <g id="text_14">
      <!-- 80000 -->
      <g transform="translate(0 55.801639)scale(0.1 -0.1)">
       <use xlink:href="#DejaVuSans-38"/>
       <use x="63.623047" xlink:href="#DejaVuSans-30"/>
       <use x="127.246094" xlink:href="#DejaVuSans-30"/>
       <use x="190.869141" xlink:href="#DejaVuSans-30"/>
       <use x="254.492188" xlink:href="#DejaVuSans-30"/>
      </g>
     </g>
    </g>
   </g>
   <g id="line2d_15">
    <path clip-path="url(#p73b70e28ac)" d="M 54.030682 222.674489 
L 54.090284 222.55075 
L 56.105576 222.437678 
L 57.825976 222.275538 
L 57.904546 222.232869 
L 60.323017 222.117664 
L 60.417239 222.047261 
L 61.02374 221.87232 
L 61.067803 221.368831 
L 62.230392 221.247226 
L 62.253988 220.935745 
L 63.517134 220.822674 
L 63.544175 220.05464 
L 64.82644 219.939435 
L 64.836722 219.783694 
L 66.659954 219.649288 
L 66.668888 219.480748 
L 67.401183 219.359142 
L 67.503979 218.994326 
L 68.785217 218.881254 
L 68.824278 218.836453 
L 69.334917 218.723381 
L 69.43805 215.789918 
L 70.620207 215.670446 
L 70.640673 215.472037 
L 70.706019 215.028284 
L 71.157701 214.915213 
L 71.171704 214.797874 
L 72.375151 214.684803 
L 72.375503 214.490661 
L 74.360003 214.377589 
L 74.467045 214.255984 
L 74.501043 214.138645 
L 74.555994 213.991439 
L 74.972495 213.8677 
L 75.894228 213.635156 
L 75.894288 213.460215 
L 82.973854 213.33861 
L 82.996028 213.193537 
L 84.139776 213.080465 
L 84.166151 212.555642 
L 86.842507 212.438303 
L 86.843083 212.276163 
L 87.537253 212.158824 
L 87.54603 212.05642 
L 88.682836 211.941215 
L 88.68336 211.787608 
L 91.518047 211.653202 
L 91.518092 211.627601 
L 92.093291 211.514529 
L 92.113907 210.784897 
L 93.308532 210.669692 
L 93.313093 210.586488 
L 93.979667 210.473417 
L 93.988908 210.373146 
L 95.843451 210.260074 
L 95.873578 209.543242 
L 95.881268 209.449371 
L 97.728397 209.332033 
L 97.733984 209.189093 
L 98.18264 209.076022 
L 98.193461 209.061088 
L 101.117997 208.937349 
L 101.143667 208.455194 
L 101.761911 208.342123 
L 101.796149 207.983707 
L 102.27586 207.870635 
L 102.307971 207.505819 
L 102.481857 207.392747 
L 102.493644 206.970329 
L 104.878049 206.84659 
L 104.887208 206.601246 
L 105.513014 206.488174 
L 105.631776 206.095623 
L 106.259799 205.982552 
L 106.372016 205.656137 
L 106.452661 204.66196 
L 106.88822 204.548888 
L 106.916856 203.966463 
L 109.269495 203.853391 
L 109.272737 203.629381 
L 109.492872 203.516309 
L 109.513391 203.121625 
L 109.69472 203.008554 
L 109.745283 202.938151 
L 110.059077 202.825079 
L 110.171421 202.475197 
L 110.78759 202.308789 
L 110.845769 202.142382 
L 112.075913 202.027177 
L 112.092867 201.980242 
L 114.676926 201.86717 
L 114.677098 201.64956 
L 115.435917 201.536489 
L 115.444701 201.440484 
L 116.29241 201.325279 
L 116.384227 201.261277 
L 117.6379 201.250609 
L 119.127396 201.137538 
L 119.127778 201.135404 
L 119.424551 201.022333 
L 119.439813 200.939129 
L 119.864529 200.819657 
L 119.864596 200.81539 
L 120.685406 200.702319 
L 120.694437 200.59138 
L 123.739688 200.476175 
L 123.750337 200.369504 
L 124.437453 200.256432 
L 124.522366 196.213587 
L 125.269166 196.100515 
L 125.278317 195.876506 
L 128.09107 195.763434 
L 128.137147 195.479688 
L 128.833871 195.366616 
L 128.946762 195.319681 
L 129.073207 195.268479 
L 129.183027 195.155407 
L 129.195997 195.048736 
L 129.86207 194.931397 
L 129.873273 194.587915 
L 130.661822 194.468443 
L 130.673496 194.056692 
L 131.010041 193.94362 
L 131.031167 193.254523 
L 132.20931 193.132918 
L 132.209939 192.955843 
L 132.933209 192.840638 
L 133.03462 192.130207 
L 133.418695 191.957399 
L 133.539935 191.144563 
L 133.603087 190.886419 
L 133.603161 190.68801 
L 134.091725 190.574938 
L 134.184186 190.143986 
L 134.792859 190.030914 
L 134.814336 189.631963 
L 134.829493 189.019669 
L 134.954029 188.906598 
L 134.954111 188.712456 
L 135.642672 188.595117 
L 135.757293 188.379641 
L 135.934727 188.04256 
L 136.063247 187.807883 
L 136.238053 187.470801 
L 136.358454 187.210523 
L 136.460801 187.046249 
L 136.584176 186.643031 
L 136.630066 186.521426 
L 136.758877 185.889931 
L 136.939936 184.942689 
L 137.376356 183.21248 
L 137.49052 182.292972 
L 137.595323 182.032694 
L 137.904078 181.919623 
L 137.948058 181.505738 
L 138.128391 181.392666 
L 138.132996 180.95318 
L 141.256511 180.827308 
L 141.297361 180.72277 
L 141.79208 180.609698 
L 141.90703 180.217147 
L 142.036897 180.116876 
L 142.33406 179.830997 
L 142.49144 179.717925 
L 142.579446 179.560052 
L 142.745109 179.444847 
L 142.86909 179.346709 
L 143.025077 179.21657 
L 143.0921 179.122699 
L 145.191744 179.001094 
L 145.191797 178.99256 
L 147.664163 178.84962 
L 147.684562 178.087987 
L 150.421748 177.957848 
L 150.529089 177.906645 
L 150.859598 177.887445 
L 151.446831 177.774373 
L 151.567353 177.625033 
L 151.799484 176.73326 
L 152.13069 176.620189 
L 152.29463 175.926825 
L 152.735985 175.429736 
L 154.924092 175.316664 
L 154.93066 175.131056 
L 155.394054 175.017985 
L 155.474137 174.825976 
L 155.673827 174.712904 
L 155.677624 174.689437 
L 155.995889 174.576365 
L 156.138307 174.107011 
L 156.203765 173.859533 
L 156.512325 172.818421 
L 156.619435 172.592278 
L 156.924782 169.338801 
L 156.928743 169.336667 
L 157.301593 169.223595 
L 157.441338 168.967584 
L 160.024116 168.854512 
L 160.042283 168.828911 
L 160.667761 168.71584 
L 161.080936 168.180349 
L 162.233947 167.849668 
L 165.748674 167.725929 
L 165.776599 167.706728 
L 170.914709 167.591523 
L 170.922797 167.58299 
L 171.991674 167.469918 
L 172.149863 166.84269 
L 174.2611 166.712551 
L 174.312966 166.52481 
L 177.976655 166.403204 
L 178.134859 163.535878 
L 178.180442 163.478275 
L 178.817864 163.365203 
L 178.826431 163.354536 
L 180.798963 163.237198 
L 180.807688 160.352804 
L 182.16686 160.239732 
L 182.189318 160.214131 
L 183.240986 160.098926 
L 183.314434 159.998655 
L 183.668435 159.885583 
L 183.7305 159.689308 
L 184.168755 159.571969 
L 184.299259 159.484499 
L 184.55659 159.371427 
L 184.642102 159.222087 
L 184.756415 159.109016 
L 184.80599 158.684463 
L 186.160429 158.571392 
L 186.160691 158.326048 
L 192.50797 158.187375 
L 192.508075 158.168174 
L 194.968235 158.020968 
L 194.993472 157.109994 
L 195.006577 156.736644 
L 196.36691 156.623572 
L 196.387069 156.597971 
L 196.766127 156.482766 
L 196.797781 156.41663 
L 198.131013 156.27369 
L 198.254582 155.815003 
L 198.280635 155.7446 
L 202.668329 155.612328 
L 202.789606 154.895496 
L 204.866478 154.782425 
L 204.987374 154.596816 
L 205.231876 154.558415 
L 207.157044 154.445343 
L 207.422769 154.003723 
L 207.702857 153.78398 
L 207.810573 153.707177 
L 209.126446 153.594105 
L 209.223708 153.342361 
L 209.62154 153.199421 
L 209.683695 152.7066 
L 211.176943 152.593528 
L 211.201828 152.277781 
L 212.259314 152.160442 
L 212.285075 152.032436 
L 212.407873 151.328405 
L 212.459454 151.021192 
L 212.788915 149.736868 
L 213.649527 149.623797 
L 213.983862 147.174622 
L 214.257114 147.06155 
L 214.383394 146.654066 
L 215.174174 146.540994 
L 215.714222 145.380409 
L 215.866787 144.388366 
L 215.931548 144.198491 
L 216.105433 144.085419 
L 216.185703 143.81874 
L 216.365737 142.965369 
L 216.389221 142.803229 
L 216.522106 142.22507 
L 216.526899 142.21867 
L 218.009887 142.101331 
L 218.010299 142.099198 
L 218.552496 141.986126 
L 218.567465 141.887989 
L 218.833767 141.774917 
L 218.841361 141.747182 
L 220.06156 141.62771 
L 220.242409 141.414368 
L 220.367933 141.275695 
L 220.47293 141.055952 
L 220.869436 140.94288 
L 220.921767 140.750872 
L 222.68584 140.635667 
L 222.941253 138.728382 
L 223.053095 136.362411 
L 223.374603 136.24934 
L 223.462542 136.153335 
L 223.991004 136.040264 
L 224.108897 135.391702 
L 224.177193 135.27863 
L 224.217242 135.11649 
L 224.580484 135.003418 
L 224.668864 134.845544 
L 224.871985 134.732473 
L 225.026587 134.043376 
L 225.225454 132.92546 
L 225.378685 131.692338 
L 225.412773 131.464062 
L 225.554248 129.998397 
L 225.577478 129.908793 
L 226.879482 129.795721 
L 226.948557 129.089557 
L 227.798519 128.974352 
L 227.916689 128.280988 
L 227.946823 128.084712 
L 229.239707 127.969507 
L 229.259259 127.956707 
L 229.636198 127.843635 
L 229.748242 127.562023 
L 229.989839 126.806789 
L 230.014439 126.781188 
L 231.882491 126.668117 
L 233.230962 126.469708 
L 233.328681 126.301167 
L 234.204516 126.06649 
L 234.22535 126.002487 
L 234.480231 125.889416 
L 234.694795 125.567268 
L 234.94251 125.454196 
L 235.118484 124.436551 
L 236.098531 124.321346 
L 236.210119 124.291478 
L 236.30482 124.157072 
L 236.519181 123.677051 
L 236.609583 123.529845 
L 236.774077 123.286634 
L 237.324414 123.015689 
L 237.438458 122.941019 
L 238.289117 122.710609 
L 238.72067 122.439663 
L 238.856887 122.215653 
L 239.068657 121.791101 
L 239.224218 121.259878 
L 239.303095 121.040135 
L 239.644672 120.461976 
L 239.918298 120.208098 
L 240.171487 119.743011 
L 240.357833 119.565936 
L 240.465609 119.378195 
L 240.496357 119.26299 
L 240.633736 118.179208 
L 240.749547 117.765324 
L 240.853032 117.556248 
L 240.994536 117.197832 
L 241.076394 117.029291 
L 241.20683 116.690076 
L 241.291227 116.508735 
L 241.825231 115.531625 
L 242.293365 115.27988 
L 242.423255 115.085739 
L 242.601057 115.002535 
L 242.731792 114.851062 
L 242.842788 114.051026 
L 242.966081 113.893153 
L 243.307133 113.658476 
L 243.469621 113.515536 
L 244.027858 113.214723 
L 244.140517 113.061116 
L 244.405208 112.856307 
L 244.611489 112.668565 
L 245.104126 112.416821 
L 245.215122 110.4306 
L 245.248027 108.561717 
L 245.396893 103.085209 
L 245.64153 102.370511 
L 245.648532 98.163391 
L 245.734636 92.206862 
L 245.924075 92.091657 
L 246.056451 91.79511 
L 246.117715 91.664971 
L 246.228898 91.485763 
L 246.414091 91.423894 
L 247.303474 91.310822 
L 247.365547 91.142281 
L 247.425545 90.922538 
L 247.608619 90.192906 
L 248.027733 89.572079 
L 248.618231 89.459007 
L 248.742302 89.254198 
L 248.797029 89.128326 
L 248.861588 88.944851 
L 249.759051 88.829646 
L 249.940177 88.639771 
L 250.278632 88.526699 
L 250.456793 87.809868 
L 250.550805 87.681862 
L 250.738791 87.504788 
L 251.09742 87.304245 
L 251.178499 87.26371 
L 251.922423 87.146372 
L 252.116677 87.088769 
L 252.490972 86.907428 
L 252.566232 86.74102 
L 252.673139 86.502077 
L 253.261825 86.386872 
L 253.479459 85.642305 
L 254.433168 85.576169 
L 254.815132 85.463097 
L 254.921013 85.356426 
L 257.059029 84.99801 
L 257.174158 84.872138 
L 258.426618 84.759066 
L 258.445519 84.564924 
L 258.721564 84.451853 
L 258.849649 84.010233 
L 258.899508 83.873694 
L 259.594659 83.760622 
L 259.890638 83.440608 
L 261.024358 83.312602 
L 261.768642 82.992588 
L 261.789296 82.981921 
L 262.170398 82.86885 
L 262.317174 82.79418 
L 262.397542 82.661907 
L 262.498585 82.610705 
L 262.704567 82.497633 
L 262.816109 82.42083 
L 262.924522 82.294958 
L 262.946628 82.27789 
L 264.018163 82.162685 
L 264.344246 81.797869 
L 264.586922 81.684797 
L 264.665664 81.563192 
L 264.714565 81.45012 
L 264.881448 77.228067 
L 265.948902 77.108595 
L 265.965572 76.937921 
L 266.111008 75.246113 
L 266.45731 75.133041 
L 266.593812 72.707334 
L 266.663074 72.545194 
L 267.461486 72.432122 
L 267.497715 72.314784 
L 268.643223 72.197445 
L 268.757087 72.080107 
L 268.768208 71.879564 
L 269.198038 71.766493 
L 269.327388 71.405943 
L 269.733457 71.292872 
L 269.854376 70.56964 
L 269.991072 70.531238 
L 270.551684 70.418167 
L 270.814675 69.878409 
L 270.925791 69.573329 
L 271.068232 69.359986 
L 271.874551 69.234114 
L 272.006268 68.419145 
L 272.632419 68.306073 
L 272.639383 68.263405 
L 273.730554 68.1482 
L 273.96255 68.022327 
L 274.271859 67.881521 
L 274.282516 67.762049 
L 274.394088 67.663912 
L 274.614994 67.62551 
L 275.079976 67.512438 
L 275.202467 67.075086 
L 275.435437 66.637733 
L 276.572048 66.524661 
L 276.631665 66.383855 
L 276.752388 66.065974 
L 276.94641 65.786495 
L 277.664349 65.662757 
L 278.29927 65.460081 
L 279.195579 65.347009 
L 279.320534 64.952325 
L 279.861046 64.352832 
L 282.022478 64.23976 
L 282.410275 64.130956 
L 282.849511 63.985883 
L 283.030465 63.823742 
L 283.407261 63.71067 
L 283.479129 63.552797 
L 283.632151 63.439725 
L 283.786312 63.170913 
L 284.415099 62.993839 
L 286.765731 62.867966 
L 286.882358 62.072198 
L 286.939563 61.873789 
L 287.263378 61.760718 
L 287.383659 58.869923 
L 287.519982 58.846456 
L 288.014761 58.731251 
L 288.065061 58.699249 
L 290.392509 58.57551 
L 290.541442 58.142425 
L 290.592057 58.018686 
L 290.707771 57.683738 
L 290.719506 57.638936 
L 290.937633 57.525864 
L 291.093381 57.047976 
L 291.141892 56.924237 
L 291.346915 55.646314 
L 291.806393 55.533243 
L 292.095879 55.036154 
L 292.678986 54.923082 
L 292.793 54.669205 
L 295.264393 54.547599 
L 295.649816 54.285188 
L 295.736526 53.903304 
L 295.944432 42.704943 
L 296.470505 42.591871 
L 296.867498 42.303859 
L 297.289211 42.007312 
L 297.478478 41.862239 
L 297.54565 41.830238 
L 297.820429 41.717166 
L 297.8922 41.328882 
L 298.924413 41.215811 
L 299.079733 41.038736 
L 299.201094 40.89793 
L 299.381494 40.669653 
L 299.837407 40.556581 
L 299.984071 40.452043 
L 300.313861 40.394441 
L 302.333932 40.277102 
L 302.334561 40.274969 
L 304.213209 40.15763 
L 304.270849 40.036025 
L 304.903942 39.918687 
L 304.941512 39.302126 
L 305.638588 39.189054 
L 305.725231 37.085495 
L 306.214206 36.972423 
L 306.214228 36.97029 
L 308.675287 36.848684 
L 308.780771 36.818816 
L 308.818057 36.703611 
L 309.040513 35.950511 
L 309.407499 35.767037 
L 309.523363 34.924333 
L 309.669877 34.546716 
L 309.808551 34.196834 
L 310.762126 33.985625 
L 310.836533 33.324262 
L 313.323906 33.147188 
L 313.385223 32.923178 
L 314.369344 32.805839 
L 314.378779 32.793039 
L 315.49765 32.679967 
L 316.274472 32.509293 
L 316.442231 32.351419 
L 316.732257 32.050606 
L 316.845148 31.933267 
L 317.673229 31.047895 
L 317.704426 30.917756 
L 318.287473 30.804684 
L 318.429472 30.610542 
L 318.513479 30.535872 
L 319.044472 30.420667 
L 319.155693 30.17959 
L 319.548889 30.049451 
L 319.738088 29.746504 
L 320.737119 29.633433 
L 320.746278 29.059541 
L 322.413785 28.946469 
L 322.440512 26.851443 
L 333.012683 26.601832 
L 333.031974 26.578364 
L 342.887247 26.461026 
L 342.942033 26.426891 
L 346.830178 26.309552 
L 346.932293 26.26475 
L 347.13903 26.143145 
L 347.203148 25.253506 
L 358.394318 25.001761 
L 358.394318 25.001761 
" style="fill:none;stroke:#1f77b4;stroke-linecap:square;stroke-width:1.5;"/>
   </g>
   <g id="line2d_16">
    <path clip-path="url(#p73b70e28ac)" d="M 54.030682 222.674489 
L 54.090284 222.55075 
L 56.250997 222.437678 
L 61.020669 222.057928 
L 61.067803 221.469102 
L 62.240614 221.347497 
L 62.253988 221.247226 
L 63.517336 221.134154 
L 63.544175 220.387454 
L 64.830214 220.272249 
L 64.836722 220.161311 
L 66.659954 220.026905 
L 66.668888 219.875432 
L 67.40158 219.753826 
L 67.503979 219.408211 
L 69.296329 219.293006 
L 69.387405 216.984637 
L 69.43805 216.250738 
L 70.622671 216.135533 
L 70.706019 215.506172 
L 71.157701 215.3931 
L 71.171704 215.275762 
L 72.375151 215.16269 
L 72.375503 214.968548 
L 74.360003 214.855477 
L 74.467045 214.733871 
L 74.501043 214.616533 
L 74.555994 214.469326 
L 74.972495 214.345588 
L 75.460579 214.251717 
L 84.139896 214.132245 
L 84.166151 213.72476 
L 86.842559 213.607422 
L 86.843083 213.460215 
L 87.537246 213.347143 
L 87.54603 213.242606 
L 88.683135 213.1274 
L 88.68336 213.078332 
L 91.518062 212.95886 
L 91.518092 212.954593 
L 92.097514 212.841521 
L 92.113907 212.244161 
L 95.874461 212.116156 
L 95.874484 212.114022 
L 97.728472 212.000951 
L 97.733984 211.885746 
L 98.18264 211.772674 
L 98.193461 211.75774 
L 101.127043 211.634001 
L 101.143667 211.382257 
L 101.761911 211.269185 
L 101.796149 210.910769 
L 102.287992 210.797698 
L 102.307971 210.648358 
L 102.483968 210.535286 
L 102.493644 210.236606 
L 106.255711 210.104334 
L 106.275173 209.701116 
L 106.406726 209.588044 
L 106.452661 208.811477 
L 106.88822 208.698405 
L 106.905294 208.35279 
L 109.269764 208.239718 
L 109.272737 208.037042 
L 109.492872 207.923971 
L 109.513391 207.529287 
L 109.69472 207.416215 
L 109.745283 207.345812 
L 110.059077 207.23274 
L 110.171421 206.882858 
L 110.788294 206.716451 
L 110.845769 206.575645 
L 114.676933 206.449772 
L 114.677098 206.234296 
L 116.308645 206.121224 
L 119.424431 205.922816 
L 119.439813 205.835345 
L 119.864529 205.715873 
L 119.864596 205.711606 
L 123.739688 205.596401 
L 123.750337 205.48973 
L 124.437453 205.376658 
L 124.522366 201.357281 
L 128.09107 201.244209 
L 128.107073 201.152472 
L 130.660594 201.033 
L 130.673496 200.531644 
L 131.010041 200.418573 
L 131.031167 199.729476 
L 132.209414 199.616404 
L 132.209939 199.473464 
L 132.933232 199.360393 
L 133.03462 199.149183 
L 133.541717 198.957175 
L 133.569875 198.816369 
L 134.103407 198.703297 
L 134.104358 198.598759 
L 135.61447 198.483554 
L 135.799918 198.10167 
L 135.979996 197.785923 
L 136.189512 197.376305 
L 136.370204 197.017889 
L 136.502969 196.73201 
L 136.613014 196.407729 
L 136.63408 196.292524 
L 136.753553 195.97251 
L 136.808833 195.801836 
L 136.944811 195.136206 
L 137.074379 194.62845 
L 137.326085 193.740945 
L 137.423924 193.373995 
L 137.536665 192.864106 
L 137.595323 192.819304 
L 137.904415 192.706232 
L 137.921818 192.36275 
L 142.9196 192.202743 
L 142.922888 192.20061 
L 145.191752 192.083271 
L 145.191797 192.079005 
L 151.558613 191.884863 
L 151.703757 191.500846 
L 151.712437 191.481645 
L 152.174281 191.368573 
L 152.383137 190.929087 
L 152.497758 190.749879 
L 152.637435 190.624007 
L 152.735985 190.598406 
L 154.924092 190.485334 
L 154.93066 190.299726 
L 155.40605 190.186654 
L 155.43256 190.077849 
L 155.673827 189.964778 
L 155.677624 189.94131 
L 156.088628 189.828238 
L 156.240714 189.33115 
L 156.264206 189.239412 
L 156.629402 189.126341 
L 156.757854 188.684721 
L 156.785771 188.514047 
L 156.875477 187.75668 
L 156.928743 187.135853 
L 159.335465 187.012114 
L 159.347739 187.009981 
L 165.741612 186.886242 
L 165.776599 186.869174 
L 171.989862 186.753969 
L 172.112922 186.16301 
L 172.408534 186.090473 
L 174.263032 185.977402 
L 174.312966 185.813128 
L 177.979291 185.691523 
L 178.144512 185.209368 
L 180.798956 185.085629 
L 180.807688 182.657789 
L 183.647737 182.54045 
L 183.7305 182.282305 
L 184.176424 182.164967 
L 184.202222 182.120165 
L 184.556837 182.002826 
L 184.570077 181.885488 
L 184.759208 181.772416 
L 184.801616 181.390533 
L 186.160429 181.277461 
L 186.160691 181.032117 
L 192.50797 180.893444 
L 192.508075 180.87851 
L 194.970325 180.731304 
L 195.006577 179.52805 
L 196.36691 179.414979 
L 196.387069 179.389378 
L 198.280567 179.259239 
L 198.280635 179.257105 
L 202.670875 179.124833 
L 202.789606 178.437869 
L 204.866478 178.324797 
L 204.971078 178.181858 
L 205.231876 178.143456 
L 207.165027 178.030384 
L 207.386052 177.637834 
L 207.614836 177.462893 
L 207.773138 177.347687 
L 207.810573 177.32422 
L 209.128985 177.211148 
L 209.223708 177.017006 
L 209.621892 176.8762 
L 209.68359 176.688458 
L 211.201004 176.575387 
L 211.201828 176.330043 
L 212.265051 176.212704 
L 212.39679 175.472405 
L 212.788915 173.793397 
L 213.649901 173.680326 
L 213.86215 171.241818 
L 214.342626 171.128746 
L 214.34306 171.124479 
L 215.181603 171.011408 
L 215.523 170.495118 
L 215.61055 170.382047 
L 215.789302 169.987362 
L 216.245777 169.291865 
L 216.358997 168.95265 
L 216.432834 168.762775 
L 216.511397 168.683838 
L 218.009887 168.5665 
L 218.010299 168.564366 
L 218.833767 168.451295 
L 218.841361 168.42356 
L 220.097932 168.308355 
L 220.271824 168.099279 
L 220.398037 167.958473 
L 220.47293 167.868869 
L 220.871593 167.755797 
L 220.921767 167.591523 
L 222.68584 167.476318 
L 222.844261 167.184039 
L 222.985878 167.0667 
L 223.022632 166.277332 
L 223.053095 165.618103 
L 224.082897 165.498631 
L 224.108897 165.298089 
L 224.580484 165.185017 
L 224.668864 165.027143 
L 224.871985 164.914072 
L 225.026587 164.224975 
L 225.225454 163.107059 
L 225.376431 161.969942 
L 225.577478 160.894694 
L 226.880111 160.781623 
L 226.948557 160.092526 
L 227.896635 159.977321 
L 227.946823 159.507966 
L 229.633562 159.390628 
L 229.748242 159.042879 
L 229.973723 158.362316 
L 230.014439 158.319647 
L 233.211619 158.202309 
L 233.231396 158.074303 
L 233.328681 157.952698 
L 234.208163 157.718021 
L 234.22535 157.690286 
L 234.492438 157.577215 
L 234.676051 157.327604 
L 234.691462 157.321203 
L 234.957929 157.208132 
L 235.057759 157.082259 
L 236.098531 156.967054 
L 236.210119 156.937186 
L 236.503687 156.757978 
L 236.774077 156.356894 
L 238.544568 155.7382 
L 238.672331 155.631529 
L 238.854131 155.349916 
L 239.009782 155.044836 
L 239.077509 154.876295 
L 239.20978 154.460277 
L 239.25904 154.325871 
L 239.494451 153.745579 
L 239.835354 153.510902 
L 240.289508 153.028747 
L 241.838396 152.461255 
L 242.273505 152.279914 
L 242.753547 151.989768 
L 242.775855 151.863896 
L 242.938957 151.343339 
L 245.18358 149.943811 
L 245.318278 143.20858 
L 245.495929 141.282095 
L 245.659495 140.953547 
L 245.817168 139.530551 
L 245.925782 139.417479 
L 246.173797 139.135867 
L 246.414091 139.065464 
L 247.336042 138.952392 
L 247.508264 138.416902 
L 247.725119 137.941148 
L 248.027733 137.499528 
L 248.659433 137.386456 
L 248.785519 137.117645 
L 248.861588 136.908569 
L 249.855459 136.793364 
L 249.940177 136.742161 
L 250.639477 136.62909 
L 250.892509 136.601355 
L 251.977898 136.477616 
L 252.943335 136.407213 
L 253.263188 136.294142 
L 253.342642 135.594377 
L 254.70472 135.459971 
L 254.815439 135.400235 
L 254.95269 135.310632 
L 256.897043 135.150624 
L 257.174158 134.886079 
L 258.426618 134.773008 
L 258.445519 134.578866 
L 258.73246 134.465794 
L 258.86014 134.260985 
L 259.604102 134.147914 
L 259.851443 134.030575 
L 261.19208 133.8471 
L 264.041273 133.480151 
L 264.159653 133.307343 
L 264.519412 133.217739 
L 264.662257 133.098267 
L 264.723057 132.840122 
L 264.881448 128.84848 
L 265.956166 128.733274 
L 265.982541 128.229786 
L 266.065979 126.904927 
L 266.45731 126.791855 
L 266.593356 124.415217 
L 266.663074 124.253077 
L 267.461486 124.140005 
L 267.497715 124.022666 
L 269.185614 123.901061 
L 269.215883 123.73252 
L 270.531734 123.615182 
L 270.773945 123.241832 
L 271.178014 122.82368 
L 271.877367 122.687141 
L 272.006268 121.887106 
L 272.632419 121.774034 
L 272.639383 121.731365 
L 273.795847 121.61616 
L 273.9265 121.562825 
L 275.122167 121.411351 
L 275.26132 120.969732 
L 275.396736 120.739322 
L 275.433842 120.726521 
L 277.631369 120.611316 
L 277.864392 120.525979 
L 279.192344 120.40864 
L 279.350406 119.888084 
L 279.608133 119.557403 
L 279.63963 119.437931 
L 282.220477 119.286457 
L 283.437867 119.145651 
L 286.651717 119.024046 
L 286.766135 118.872572 
L 286.882208 118.151474 
L 286.936441 117.963732 
L 287.263415 117.850661 
L 287.320216 115.444154 
L 290.416382 115.213744 
L 290.541442 114.81266 
L 290.592057 114.688921 
L 290.682954 114.590783 
L 291.231006 114.477712 
L 291.280484 113.622207 
L 291.806393 113.509136 
L 292.095879 113.012047 
L 292.678986 112.898975 
L 292.793 112.645097 
L 295.296361 112.523492 
L 295.39572 112.497891 
L 295.736301 112.384819 
L 295.889877 106.025072 
L 296.879997 105.59412 
L 297.112795 105.474648 
L 297.335902 105.318907 
L 297.479713 105.216503 
L 297.83471 104.956225 
L 297.8922 104.713014 
L 298.924413 104.599942 
L 299.048514 104.525272 
L 299.837407 104.407934 
L 299.984071 104.303396 
L 300.313861 104.245793 
L 303.054147 104.126321 
L 303.105122 104.122055 
L 304.256808 104.008983 
L 304.270849 103.957781 
L 304.904241 103.840442 
L 304.941512 103.238816 
L 305.64061 103.125744 
L 305.725231 101.030718 
L 308.76062 100.896312 
L 308.82115 100.757639 
L 308.931697 100.209348 
L 309.073845 100.143212 
L 309.495363 100.030141 
L 309.650167 99.626923 
L 309.829085 99.249306 
L 310.281613 99.134101 
L 310.943372 99.082899 
L 313.32458 98.961293 
L 313.385223 98.760751 
L 315.14159 98.637012 
L 315.252054 98.605011 
L 316.316895 98.445004 
L 316.427524 98.327665 
L 316.646385 98.110056 
L 317.487527 97.246018 
L 317.625249 97.111612 
L 317.698877 96.936671 
L 317.702988 96.889735 
L 318.287473 96.776664 
L 319.653123 95.970228 
L 319.734074 95.884891 
L 320.737224 95.771819 
L 320.746278 95.210728 
L 332.327896 95.084856 
L 332.328285 95.074188 
L 332.983388 94.961117 
L 333.031974 94.905648 
L 342.887801 94.788309 
L 342.942033 94.766975 
L 346.929851 94.649636 
L 346.975195 94.641103 
L 354.976951 94.528031 
L 355.007415 94.436294 
L 358.394318 94.400025 
L 358.394318 94.400025 
" style="fill:none;stroke:#ff7f0e;stroke-linecap:square;stroke-width:1.5;"/>
   </g>
   <g id="patch_3">
    <path d="M 38.8125 232.558125 
L 38.8125 15.118125 
" style="fill:none;stroke:#000000;stroke-linecap:square;stroke-linejoin:miter;stroke-width:0.8;"/>
   </g>
   <g id="patch_4">
    <path d="M 373.6125 232.558125 
L 373.6125 15.118125 
" style="fill:none;stroke:#000000;stroke-linecap:square;stroke-linejoin:miter;stroke-width:0.8;"/>
   </g>
   <g id="patch_5">
    <path d="M 38.8125 232.558125 
L 373.6125 232.558125 
" style="fill:none;stroke:#000000;stroke-linecap:square;stroke-linejoin:miter;stroke-width:0.8;"/>
   </g>
   <g id="patch_6">
    <path d="M 38.8125 15.118125 
L 373.6125 15.118125 
" style="fill:none;stroke:#000000;stroke-linecap:square;stroke-linejoin:miter;stroke-width:0.8;"/>
   </g>
   <g id="text_15">
    <!-- Number of BOLD records in database -->
    <defs>
     <path d="M 9.8125 72.90625 
L 23.09375 72.90625 
L 55.421875 11.921875 
L 55.421875 72.90625 
L 64.984375 72.90625 
L 64.984375 0 
L 51.703125 0 
L 19.390625 60.984375 
L 19.390625 0 
L 9.8125 0 
z
" id="DejaVuSans-4e"/>
     <path d="M 8.5 21.578125 
L 8.5 54.6875 
L 17.484375 54.6875 
L 17.484375 21.921875 
Q 17.484375 14.15625 20.5 10.265625 
Q 23.53125 6.390625 29.59375 6.390625 
Q 36.859375 6.390625 41.078125 11.03125 
Q 45.3125 15.671875 45.3125 23.6875 
L 45.3125 54.6875 
L 54.296875 54.6875 
L 54.296875 0 
L 45.3125 0 
L 45.3125 8.40625 
Q 42.046875 3.421875 37.71875 1 
Q 33.40625 -1.421875 27.6875 -1.421875 
Q 18.265625 -1.421875 13.375 4.4375 
Q 8.5 10.296875 8.5 21.578125 
z
M 31.109375 56 
z
" id="DejaVuSans-75"/>
     <path d="M 52 44.1875 
Q 55.375 50.25 60.0625 53.125 
Q 64.75 56 71.09375 56 
Q 79.640625 56 84.28125 50.015625 
Q 88.921875 44.046875 88.921875 33.015625 
L 88.921875 0 
L 79.890625 0 
L 79.890625 32.71875 
Q 79.890625 40.578125 77.09375 44.375 
Q 74.3125 48.1875 68.609375 48.1875 
Q 61.625 48.1875 57.5625 43.546875 
Q 53.515625 38.921875 53.515625 30.90625 
L 53.515625 0 
L 44.484375 0 
L 44.484375 32.71875 
Q 44.484375 40.625 41.703125 44.40625 
Q 38.921875 48.1875 33.109375 48.1875 
Q 26.21875 48.1875 22.15625 43.53125 
Q 18.109375 38.875 18.109375 30.90625 
L 18.109375 0 
L 9.078125 0 
L 9.078125 54.6875 
L 18.109375 54.6875 
L 18.109375 46.1875 
Q 21.1875 51.21875 25.484375 53.609375 
Q 29.78125 56 35.6875 56 
Q 41.65625 56 45.828125 52.96875 
Q 50 49.953125 52 44.1875 
z
" id="DejaVuSans-6d"/>
     <path d="M 48.6875 27.296875 
Q 48.6875 37.203125 44.609375 42.84375 
Q 40.53125 48.484375 33.40625 48.484375 
Q 26.265625 48.484375 22.1875 42.84375 
Q 18.109375 37.203125 18.109375 27.296875 
Q 18.109375 17.390625 22.1875 11.75 
Q 26.265625 6.109375 33.40625 6.109375 
Q 40.53125 6.109375 44.609375 11.75 
Q 48.6875 17.390625 48.6875 27.296875 
z
M 18.109375 46.390625 
Q 20.953125 51.265625 25.265625 53.625 
Q 29.59375 56 35.59375 56 
Q 45.5625 56 51.78125 48.09375 
Q 58.015625 40.1875 58.015625 27.296875 
Q 58.015625 14.40625 51.78125 6.484375 
Q 45.5625 -1.421875 35.59375 -1.421875 
Q 29.59375 -1.421875 25.265625 0.953125 
Q 20.953125 3.328125 18.109375 8.203125 
L 18.109375 0 
L 9.078125 0 
L 9.078125 75.984375 
L 18.109375 75.984375 
z
" id="DejaVuSans-62"/>
     <path d="M 56.203125 29.59375 
L 56.203125 25.203125 
L 14.890625 25.203125 
Q 15.484375 15.921875 20.484375 11.0625 
Q 25.484375 6.203125 34.421875 6.203125 
Q 39.59375 6.203125 44.453125 7.46875 
Q 49.3125 8.734375 54.109375 11.28125 
L 54.109375 2.78125 
Q 49.265625 0.734375 44.1875 -0.34375 
Q 39.109375 -1.421875 33.890625 -1.421875 
Q 20.796875 -1.421875 13.15625 6.1875 
Q 5.515625 13.8125 5.515625 26.8125 
Q 5.515625 40.234375 12.765625 48.109375 
Q 20.015625 56 32.328125 56 
Q 43.359375 56 49.78125 48.890625 
Q 56.203125 41.796875 56.203125 29.59375 
z
M 47.21875 32.234375 
Q 47.125 39.59375 43.09375 43.984375 
Q 39.0625 48.390625 32.421875 48.390625 
Q 24.90625 48.390625 20.390625 44.140625 
Q 15.875 39.890625 15.1875 32.171875 
z
" id="DejaVuSans-65"/>
     <path d="M 41.109375 46.296875 
Q 39.59375 47.171875 37.8125 47.578125 
Q 36.03125 48 33.890625 48 
Q 26.265625 48 22.1875 43.046875 
Q 18.109375 38.09375 18.109375 28.8125 
L 18.109375 0 
L 9.078125 0 
L 9.078125 54.6875 
L 18.109375 54.6875 
L 18.109375 46.1875 
Q 20.953125 51.171875 25.484375 53.578125 
Q 30.03125 56 36.53125 56 
Q 37.453125 56 38.578125 55.875 
Q 39.703125 55.765625 41.0625 55.515625 
z
" id="DejaVuSans-72"/>
     <path id="DejaVuSans-20"/>
     <path d="M 30.609375 48.390625 
Q 23.390625 48.390625 19.1875 42.75 
Q 14.984375 37.109375 14.984375 27.296875 
Q 14.984375 17.484375 19.15625 11.84375 
Q 23.34375 6.203125 30.609375 6.203125 
Q 37.796875 6.203125 41.984375 11.859375 
Q 46.1875 17.53125 46.1875 27.296875 
Q 46.1875 37.015625 41.984375 42.703125 
Q 37.796875 48.390625 30.609375 48.390625 
z
M 30.609375 56 
Q 42.328125 56 49.015625 48.375 
Q 55.71875 40.765625 55.71875 27.296875 
Q 55.71875 13.875 49.015625 6.21875 
Q 42.328125 -1.421875 30.609375 -1.421875 
Q 18.84375 -1.421875 12.171875 6.21875 
Q 5.515625 13.875 5.515625 27.296875 
Q 5.515625 40.765625 12.171875 48.375 
Q 18.84375 56 30.609375 56 
z
" id="DejaVuSans-6f"/>
     <path d="M 37.109375 75.984375 
L 37.109375 68.5 
L 28.515625 68.5 
Q 23.6875 68.5 21.796875 66.546875 
Q 19.921875 64.59375 19.921875 59.515625 
L 19.921875 54.6875 
L 34.71875 54.6875 
L 34.71875 47.703125 
L 19.921875 47.703125 
L 19.921875 0 
L 10.890625 0 
L 10.890625 47.703125 
L 2.296875 47.703125 
L 2.296875 54.6875 
L 10.890625 54.6875 
L 10.890625 58.5 
Q 10.890625 67.625 15.140625 71.796875 
Q 19.390625 75.984375 28.609375 75.984375 
z
" id="DejaVuSans-66"/>
     <path d="M 19.671875 34.8125 
L 19.671875 8.109375 
L 35.5 8.109375 
Q 43.453125 8.109375 47.28125 11.40625 
Q 51.125 14.703125 51.125 21.484375 
Q 51.125 28.328125 47.28125 31.5625 
Q 43.453125 34.8125 35.5 34.8125 
z
M 19.671875 64.796875 
L 19.671875 42.828125 
L 34.28125 42.828125 
Q 41.5 42.828125 45.03125 45.53125 
Q 48.578125 48.25 48.578125 53.8125 
Q 48.578125 59.328125 45.03125 62.0625 
Q 41.5 64.796875 34.28125 64.796875 
z
M 9.8125 72.90625 
L 35.015625 72.90625 
Q 46.296875 72.90625 52.390625 68.21875 
Q 58.5 63.53125 58.5 54.890625 
Q 58.5 48.1875 55.375 44.234375 
Q 52.25 40.28125 46.1875 39.3125 
Q 53.46875 37.75 57.5 32.78125 
Q 61.53125 27.828125 61.53125 20.40625 
Q 61.53125 10.640625 54.890625 5.3125 
Q 48.25 0 35.984375 0 
L 9.8125 0 
z
" id="DejaVuSans-42"/>
     <path d="M 39.40625 66.21875 
Q 28.65625 66.21875 22.328125 58.203125 
Q 16.015625 50.203125 16.015625 36.375 
Q 16.015625 22.609375 22.328125 14.59375 
Q 28.65625 6.59375 39.40625 6.59375 
Q 50.140625 6.59375 56.421875 14.59375 
Q 62.703125 22.609375 62.703125 36.375 
Q 62.703125 50.203125 56.421875 58.203125 
Q 50.140625 66.21875 39.40625 66.21875 
z
M 39.40625 74.21875 
Q 54.734375 74.21875 63.90625 63.9375 
Q 73.09375 53.65625 73.09375 36.375 
Q 73.09375 19.140625 63.90625 8.859375 
Q 54.734375 -1.421875 39.40625 -1.421875 
Q 24.03125 -1.421875 14.8125 8.828125 
Q 5.609375 19.09375 5.609375 36.375 
Q 5.609375 53.65625 14.8125 63.9375 
Q 24.03125 74.21875 39.40625 74.21875 
z
" id="DejaVuSans-4f"/>
     <path d="M 9.8125 72.90625 
L 19.671875 72.90625 
L 19.671875 8.296875 
L 55.171875 8.296875 
L 55.171875 0 
L 9.8125 0 
z
" id="DejaVuSans-4c"/>
     <path d="M 19.671875 64.796875 
L 19.671875 8.109375 
L 31.59375 8.109375 
Q 46.6875 8.109375 53.6875 14.9375 
Q 60.6875 21.78125 60.6875 36.53125 
Q 60.6875 51.171875 53.6875 57.984375 
Q 46.6875 64.796875 31.59375 64.796875 
z
M 9.8125 72.90625 
L 30.078125 72.90625 
Q 51.265625 72.90625 61.171875 64.09375 
Q 71.09375 55.28125 71.09375 36.53125 
Q 71.09375 17.671875 61.125 8.828125 
Q 51.171875 0 30.078125 0 
L 9.8125 0 
z
" id="DejaVuSans-44"/>
     <path d="M 48.78125 52.59375 
L 48.78125 44.1875 
Q 44.96875 46.296875 41.140625 47.34375 
Q 37.3125 48.390625 33.40625 48.390625 
Q 24.65625 48.390625 19.8125 42.84375 
Q 14.984375 37.3125 14.984375 27.296875 
Q 14.984375 17.28125 19.8125 11.734375 
Q 24.65625 6.203125 33.40625 6.203125 
Q 37.3125 6.203125 41.140625 7.25 
Q 44.96875 8.296875 48.78125 10.40625 
L 48.78125 2.09375 
Q 45.015625 0.34375 40.984375 -0.53125 
Q 36.96875 -1.421875 32.421875 -1.421875 
Q 20.0625 -1.421875 12.78125 6.34375 
Q 5.515625 14.109375 5.515625 27.296875 
Q 5.515625 40.671875 12.859375 48.328125 
Q 20.21875 56 33.015625 56 
Q 37.15625 56 41.109375 55.140625 
Q 45.0625 54.296875 48.78125 52.59375 
z
" id="DejaVuSans-63"/>
     <path d="M 45.40625 46.390625 
L 45.40625 75.984375 
L 54.390625 75.984375 
L 54.390625 0 
L 45.40625 0 
L 45.40625 8.203125 
Q 42.578125 3.328125 38.25 0.953125 
Q 33.9375 -1.421875 27.875 -1.421875 
Q 17.96875 -1.421875 11.734375 6.484375 
Q 5.515625 14.40625 5.515625 27.296875 
Q 5.515625 40.1875 11.734375 48.09375 
Q 17.96875 56 27.875 56 
Q 33.9375 56 38.25 53.625 
Q 42.578125 51.265625 45.40625 46.390625 
z
M 14.796875 27.296875 
Q 14.796875 17.390625 18.875 11.75 
Q 22.953125 6.109375 30.078125 6.109375 
Q 37.203125 6.109375 41.296875 11.75 
Q 45.40625 17.390625 45.40625 27.296875 
Q 45.40625 37.203125 41.296875 42.84375 
Q 37.203125 48.484375 30.078125 48.484375 
Q 22.953125 48.484375 18.875 42.84375 
Q 14.796875 37.203125 14.796875 27.296875 
z
" id="DejaVuSans-64"/>
     <path d="M 44.28125 53.078125 
L 44.28125 44.578125 
Q 40.484375 46.53125 36.375 47.5 
Q 32.28125 48.484375 27.875 48.484375 
Q 21.1875 48.484375 17.84375 46.4375 
Q 14.5 44.390625 14.5 40.28125 
Q 14.5 37.15625 16.890625 35.375 
Q 19.28125 33.59375 26.515625 31.984375 
L 29.59375 31.296875 
Q 39.15625 29.25 43.1875 25.515625 
Q 47.21875 21.78125 47.21875 15.09375 
Q 47.21875 7.46875 41.1875 3.015625 
Q 35.15625 -1.421875 24.609375 -1.421875 
Q 20.21875 -1.421875 15.453125 -0.5625 
Q 10.6875 0.296875 5.421875 2 
L 5.421875 11.28125 
Q 10.40625 8.6875 15.234375 7.390625 
Q 20.0625 6.109375 24.8125 6.109375 
Q 31.15625 6.109375 34.5625 8.28125 
Q 37.984375 10.453125 37.984375 14.40625 
Q 37.984375 18.0625 35.515625 20.015625 
Q 33.0625 21.96875 24.703125 23.78125 
L 21.578125 24.515625 
Q 13.234375 26.265625 9.515625 29.90625 
Q 5.8125 33.546875 5.8125 39.890625 
Q 5.8125 47.609375 11.28125 51.796875 
Q 16.75 56 26.8125 56 
Q 31.78125 56 36.171875 55.265625 
Q 40.578125 54.546875 44.28125 53.078125 
z
" id="DejaVuSans-73"/>
     <path d="M 9.421875 54.6875 
L 18.40625 54.6875 
L 18.40625 0 
L 9.421875 0 
z
M 9.421875 75.984375 
L 18.40625 75.984375 
L 18.40625 64.59375 
L 9.421875 64.59375 
z
" id="DejaVuSans-69"/>
     <path d="M 54.890625 33.015625 
L 54.890625 0 
L 45.90625 0 
L 45.90625 32.71875 
Q 45.90625 40.484375 42.875 44.328125 
Q 39.84375 48.1875 33.796875 48.1875 
Q 26.515625 48.1875 22.3125 43.546875 
Q 18.109375 38.921875 18.109375 30.90625 
L 18.109375 0 
L 9.078125 0 
L 9.078125 54.6875 
L 18.109375 54.6875 
L 18.109375 46.1875 
Q 21.34375 51.125 25.703125 53.5625 
Q 30.078125 56 35.796875 56 
Q 45.21875 56 50.046875 50.171875 
Q 54.890625 44.34375 54.890625 33.015625 
z
" id="DejaVuSans-6e"/>
     <path d="M 34.28125 27.484375 
Q 23.390625 27.484375 19.1875 25 
Q 14.984375 22.515625 14.984375 16.5 
Q 14.984375 11.71875 18.140625 8.90625 
Q 21.296875 6.109375 26.703125 6.109375 
Q 34.1875 6.109375 38.703125 11.40625 
Q 43.21875 16.703125 43.21875 25.484375 
L 43.21875 27.484375 
z
M 52.203125 31.203125 
L 52.203125 0 
L 43.21875 0 
L 43.21875 8.296875 
Q 40.140625 3.328125 35.546875 0.953125 
Q 30.953125 -1.421875 24.3125 -1.421875 
Q 15.921875 -1.421875 10.953125 3.296875 
Q 6 8.015625 6 15.921875 
Q 6 25.140625 12.171875 29.828125 
Q 18.359375 34.515625 30.609375 34.515625 
L 43.21875 34.515625 
L 43.21875 35.40625 
Q 43.21875 41.609375 39.140625 45 
Q 35.0625 48.390625 27.6875 48.390625 
Q 23 48.390625 18.546875 47.265625 
Q 14.109375 46.140625 10.015625 43.890625 
L 10.015625 52.203125 
Q 14.9375 54.109375 19.578125 55.046875 
Q 24.21875 56 28.609375 56 
Q 40.484375 56 46.34375 49.84375 
Q 52.203125 43.703125 52.203125 31.203125 
z
" id="DejaVuSans-61"/>
     <path d="M 18.3125 70.21875 
L 18.3125 54.6875 
L 36.8125 54.6875 
L 36.8125 47.703125 
L 18.3125 47.703125 
L 18.3125 18.015625 
Q 18.3125 11.328125 20.140625 9.421875 
Q 21.96875 7.515625 27.59375 7.515625 
L 36.8125 7.515625 
L 36.8125 0 
L 27.59375 0 
Q 17.1875 0 13.234375 3.875 
Q 9.28125 7.765625 9.28125 18.015625 
L 9.28125 47.703125 
L 2.6875 47.703125 
L 2.6875 54.6875 
L 9.28125 54.6875 
L 9.28125 70.21875 
z
" id="DejaVuSans-74"/>
    </defs>
    <g transform="translate(94.174688 9.118125)scale(0.12 -0.12)">
     <use xlink:href="#DejaVuSans-4e"/>
     <use x="74.804688" xlink:href="#DejaVuSans-75"/>
     <use x="138.183594" xlink:href="#DejaVuSans-6d"/>
     <use x="235.595703" xlink:href="#DejaVuSans-62"/>
     <use x="299.072266" xlink:href="#DejaVuSans-65"/>
     <use x="360.595703" xlink:href="#DejaVuSans-72"/>
     <use x="401.708984" xlink:href="#DejaVuSans-20"/>
     <use x="433.496094" xlink:href="#DejaVuSans-6f"/>
     <use x="494.677734" xlink:href="#DejaVuSans-66"/>
     <use x="529.882812" xlink:href="#DejaVuSans-20"/>
     <use x="561.669922" xlink:href="#DejaVuSans-42"/>
     <use x="630.257812" xlink:href="#DejaVuSans-4f"/>
     <use x="708.96875" xlink:href="#DejaVuSans-4c"/>
     <use x="764.681641" xlink:href="#DejaVuSans-44"/>
     <use x="841.683594" xlink:href="#DejaVuSans-20"/>
     <use x="873.470703" xlink:href="#DejaVuSans-72"/>
     <use x="914.552734" xlink:href="#DejaVuSans-65"/>
     <use x="976.076172" xlink:href="#DejaVuSans-63"/>
     <use x="1031.056641" xlink:href="#DejaVuSans-6f"/>
     <use x="1092.238281" xlink:href="#DejaVuSans-72"/>
     <use x="1133.335938" xlink:href="#DejaVuSans-64"/>
     <use x="1196.8125" xlink:href="#DejaVuSans-73"/>
     <use x="1248.912109" xlink:href="#DejaVuSans-20"/>
     <use x="1280.699219" xlink:href="#DejaVuSans-69"/>
     <use x="1308.482422" xlink:href="#DejaVuSans-6e"/>
     <use x="1371.861328" xlink:href="#DejaVuSans-20"/>
     <use x="1403.648438" xlink:href="#DejaVuSans-64"/>
     <use x="1467.125" xlink:href="#DejaVuSans-61"/>
     <use x="1528.404297" xlink:href="#DejaVuSans-74"/>
     <use x="1567.613281" xlink:href="#DejaVuSans-61"/>
     <use x="1628.892578" xlink:href="#DejaVuSans-62"/>
     <use x="1692.369141" xlink:href="#DejaVuSans-61"/>
     <use x="1753.648438" xlink:href="#DejaVuSans-73"/>
     <use x="1805.748047" xlink:href="#DejaVuSans-65"/>
    </g>
   </g>
   <g id="legend_1">
    <g id="patch_7">
     <path d="M 45.8125 52.474375 
L 112.104688 52.474375 
Q 114.104688 52.474375 114.104688 50.474375 
L 114.104688 22.118125 
Q 114.104688 20.118125 112.104688 20.118125 
L 45.8125 20.118125 
Q 43.8125 20.118125 43.8125 22.118125 
L 43.8125 50.474375 
Q 43.8125 52.474375 45.8125 52.474375 
z
" style="fill:#ffffff;opacity:0.8;stroke:#cccccc;stroke-linejoin:miter;"/>
    </g>
    <g id="line2d_17">
     <path d="M 47.8125 28.216563 
L 67.8125 28.216563 
" style="fill:none;stroke:#1f77b4;stroke-linecap:square;stroke-width:1.5;"/>
    </g>
    <g id="line2d_18"/>
    <g id="text_16">
     <!-- total -->
     <defs>
      <path d="M 9.421875 75.984375 
L 18.40625 75.984375 
L 18.40625 0 
L 9.421875 0 
z
" id="DejaVuSans-6c"/>
     </defs>
     <g transform="translate(75.8125 31.716563)scale(0.1 -0.1)">
      <use xlink:href="#DejaVuSans-74"/>
      <use x="39.208984" xlink:href="#DejaVuSans-6f"/>
      <use x="100.390625" xlink:href="#DejaVuSans-74"/>
      <use x="139.599609" xlink:href="#DejaVuSans-61"/>
      <use x="200.878906" xlink:href="#DejaVuSans-6c"/>
     </g>
    </g>
    <g id="line2d_19">
     <path d="M 47.8125 42.894688 
L 67.8125 42.894688 
" style="fill:none;stroke:#ff7f0e;stroke-linecap:square;stroke-width:1.5;"/>
    </g>
    <g id="line2d_20"/>
    <g id="text_17">
     <!-- unique -->
     <defs>
      <path d="M 14.796875 27.296875 
Q 14.796875 17.390625 18.875 11.75 
Q 22.953125 6.109375 30.078125 6.109375 
Q 37.203125 6.109375 41.296875 11.75 
Q 45.40625 17.390625 45.40625 27.296875 
Q 45.40625 37.203125 41.296875 42.84375 
Q 37.203125 48.484375 30.078125 48.484375 
Q 22.953125 48.484375 18.875 42.84375 
Q 14.796875 37.203125 14.796875 27.296875 
z
M 45.40625 8.203125 
Q 42.578125 3.328125 38.25 0.953125 
Q 33.9375 -1.421875 27.875 -1.421875 
Q 17.96875 -1.421875 11.734375 6.484375 
Q 5.515625 14.40625 5.515625 27.296875 
Q 5.515625 40.1875 11.734375 48.09375 
Q 17.96875 56 27.875 56 
Q 33.9375 56 38.25 53.625 
Q 42.578125 51.265625 45.40625 46.390625 
L 45.40625 54.6875 
L 54.390625 54.6875 
L 54.390625 -20.796875 
L 45.40625 -20.796875 
z
" id="DejaVuSans-71"/>
     </defs>
     <g transform="translate(75.8125 46.394688)scale(0.1 -0.1)">
      <use xlink:href="#DejaVuSans-75"/>
      <use x="63.378906" xlink:href="#DejaVuSans-6e"/>
      <use x="126.757812" xlink:href="#DejaVuSans-69"/>
      <use x="154.541016" xlink:href="#DejaVuSans-71"/>
      <use x="218.017578" xlink:href="#DejaVuSans-75"/>
      <use x="281.396484" xlink:href="#DejaVuSans-65"/>
     </g>
    </g>
   </g>
  </g>
 </g>
 <defs>
  <clipPath id="p73b70e28ac">
   <rect height="217.44" width="334.8" x="38.8125" y="15.118125"/>
  </clipPath>
 </defs>
</svg>
